<svg width="30" height="30" viewBox="0 0 30 30" fill="none" xmlns="http://www.w3.org/2000/svg">
<path d="M26 25C26.5523 25 27 25.4477 27 26C27 26.5523 26.5523 27 26 27H4C3.44772 27 3 26.5523 3 26C3.00001 25.4477 3.44772 25 4 25H26ZM16.5 20C17.0523 20 17.5 20.4477 17.5 21C17.5 21.5523 17.0523 22 16.5 22H4C3.44772 22 3 21.5523 3 21C3.00001 20.4477 3.44772 20 4 20H16.5ZM8.86719 1.72558C9.29463 1.37629 9.92482 1.43989 10.2744 1.86718C10.6237 2.29461 10.5601 2.92481 10.1328 3.2744L6.92676 5.89647C17.2981 6.07361 25.0096 12.0285 25.9941 20.8896C26.0551 21.4385 25.6592 21.9331 25.1104 21.9941C24.5615 22.0551 24.0668 21.6592 24.0059 21.1103C23.1461 13.3732 16.2564 7.82427 6.30567 7.89159L9.70703 11.293C10.0976 11.6835 10.0976 12.3165 9.70703 12.707C9.31651 13.0975 8.6835 13.0975 8.29297 12.707L3.29297 7.70702C3.0932 7.50725 2.98691 7.23236 3.00098 6.95018C3.01505 6.66801 3.14852 6.40448 3.36719 6.22558L8.86719 1.72558Z" fill="black"/>
</svg>
